
<svg>
  <path 
     style="fill:#191919;fill-rule:evenodd;stroke-width:0;stroke-miterlimit:4"
     id="path5222"
     stroke-miterlimit="4"
     d="m 79.00009,54.00429 0,10 10,0 0,-10 -10,0 z m -40,0 0,10 10,0 0,-10 -10,0 z m 0,40 20,0 0,10 -20,0 0,-10 z m 50,0 0,10 -20,0 0,-10 20,0 z m 0,-60 0,-10 10,0 0,10 -10,0 z m -50,0 10,0 0,10 30,0 0,-10 10,0 0,10 10,0 0,10 10,0 0,10 10,0 0,30 -10,0 0,-20 -10,0 0,20 -10,0 0,-10 -50,0 0,10 -10,0 0,-20 -10,0 0,20 -10,0 0,-30 10,0 0,-10 10,0 0,-10 10,0 0,-10 z m -10,-10 10,0 0,10 -10,0 0,-10 z" />
</svg>
